<?xml version="1.0" encoding="UTF-8" standalone="no"?>
<!DOCTYPE svg PUBLIC "-//W3C//DTD SVG 1.1//EN" "http://www.w3.org/Graphics/SVG/1.1/DTD/svg11.dtd">
<svg width="100%" height="100%" viewBox="0 0 200 150" version="1.1" xmlns="http://www.w3.org/2000/svg" xmlns:xlink="http://www.w3.org/1999/xlink" xml:space="preserve" xmlns:serif="http://www.serif.com/" style="fill-rule:evenodd;clip-rule:evenodd;stroke-linejoin:round;stroke-miterlimit:2;">
    <g transform="matrix(0.210202,0,0,0.210202,15.9191,10.9807)">
        <path d="M496.046,506.532C485.867,503.611 466.164,495.595 453.677,475.373C452.403,473.309 449.83,472.457 447.575,473.354C445.32,474.251 444.035,476.637 444.527,479.013C448.432,497.886 438.169,522.751 426.967,543.237C419.66,556.599 411.815,568.115 406.678,575.023C402.948,565.025 396.274,547.842 389.514,533.871C384.867,524.266 380.066,516.159 376.161,512.398C371.816,508.215 363.688,506.279 354.26,506.287C341.281,506.299 325.725,509.517 317.175,511.554C317.142,495.268 315.919,451.7 304.8,413.599C304.216,411.598 302.452,410.17 300.373,410.014C298.295,409.858 296.338,411.008 295.462,412.9C281.96,442.076 265.648,461.234 231.441,470.364C243.384,451.866 255.437,426.469 262.104,403.125C267.726,383.438 269.353,365.134 264.654,353.172C263.645,350.603 260.74,349.337 258.172,350.346C255.603,351.355 254.337,354.26 255.346,356.828C259.447,367.266 257.394,383.201 252.488,400.379C244.766,427.418 229.528,457.354 216.032,474.958C214.776,476.596 214.656,478.836 215.729,480.599C216.801,482.362 218.847,483.285 220.878,482.922C262.214,475.547 282.908,457.646 298.509,429.125C308.492,472.369 307.118,517.85 307.118,517.85C307.07,519.442 307.783,520.961 309.038,521.941C310.293,522.921 311.94,523.244 313.473,522.812C313.473,522.812 336.455,516.303 354.269,516.287C360.621,516.281 366.297,516.783 369.224,519.602C372.588,522.841 376.51,529.954 380.513,538.227C390.498,558.864 400.284,586.661 400.284,586.661C400.804,588.137 401.985,589.285 403.476,589.762C404.967,590.239 406.595,589.991 407.875,589.09C408.279,588.807 409.443,587.705 411.036,585.743C415.599,580.123 426.125,565.62 435.741,548.035C445.069,530.976 453.357,511.043 455.005,493.342C475.094,514.327 501.231,517.952 501.231,517.952C501.46,517.984 501.692,518 501.923,518C503.359,518 504.66,517.493 505.727,516.259C505.997,515.946 507.26,514.343 506.839,511.312C506.101,505.995 500.841,479.349 511.735,445.136C529.958,465.774 553.073,473.695 580.671,469.955C582.627,469.69 584.244,468.299 584.798,466.405C585.353,464.511 584.742,462.468 583.238,461.19C573.74,453.117 562.988,442.96 556.457,428C549.929,413.044 547.714,393.336 554.835,366.272C555.538,363.604 553.941,360.867 551.272,360.165C548.604,359.462 545.867,361.059 545.165,363.728C537.286,393.665 540.071,415.456 547.293,432C552.524,443.985 560.132,453.241 567.921,460.826C546.292,460.769 528.233,451.425 514.033,432.045C512.953,430.57 511.153,429.802 509.34,430.044C507.527,430.285 505.991,431.497 505.334,433.203C492.609,466.247 494.448,493.986 496.046,506.532ZM509.439,250.986C516.489,251.781 525.177,257.915 534.533,266.953C555.627,287.327 578.94,322.771 591.227,355.584C562.63,340.612 484.888,303.102 420.161,301.02C309.305,297.453 234.081,337.783 207.526,354.76C212.824,338.239 225.494,317.611 241.526,298.995C261.645,275.633 287.149,255.351 310.914,250.933C313.627,250.429 315.42,247.817 314.916,245.103C314.411,242.39 311.799,240.597 309.086,241.101C283.46,245.865 255.643,267.278 233.949,292.47C212.247,317.67 196.764,346.56 195.021,365.56C194.838,367.549 195.857,369.456 197.611,370.41C199.366,371.364 201.519,371.182 203.089,369.949C203.089,369.949 283.907,306.641 419.839,311.015C498.781,313.554 597.511,370.353 597.511,370.353C599.282,371.37 601.494,371.208 603.098,369.942C604.701,368.677 605.373,366.563 604.796,364.604C593.789,327.249 566.174,283.611 541.481,259.76C530.112,248.779 519.127,242.015 510.561,241.049C507.818,240.739 505.341,242.714 505.032,245.457C504.722,248.199 506.697,250.676 509.439,250.986ZM338.412,240.758C338.412,240.758 372.959,252.3 387.579,260.392C405.521,270.323 424.53,270.573 442.473,260.363C456.973,252.112 491.563,240.767 491.563,240.767C493.614,240.092 495,238.176 495,236.017L495,206.017C495,203.903 493.671,202.018 491.68,201.308C491.68,201.308 485.454,199.092 480.258,195.684C478.733,194.685 477.293,193.588 476.206,192.39C475.604,191.726 475.054,191.093 474.956,190.356C472.019,168.325 474.322,79.884 474.883,60.105C512.541,52.547 550.664,53.849 589.093,60.934C591.807,61.435 594.417,59.638 594.917,56.924C595.417,54.21 593.62,51.6 590.907,51.1C549.853,43.53 509.137,42.412 468.94,51.131C466.696,51.618 465.072,53.57 465.002,55.866C465.002,55.866 461.69,166.528 465.044,191.678C465.519,195.243 467.997,198.814 471.655,201.783C475.818,205.16 481.465,207.873 485,209.392C485,209.392 485,232.427 485,232.427C475.668,235.612 449.739,244.722 437.527,251.671C422.784,260.061 407.165,259.803 392.421,251.643C377.299,243.273 341.588,231.276 341.588,231.276C338.972,230.4 336.136,231.812 335.259,234.429C334.382,237.045 335.795,239.882 338.412,240.758ZM552.431,95.077C554.162,94.795 555.619,93.625 556.269,91.995L564.644,70.995C565.198,69.606 565.101,68.041 564.38,66.731C563.658,65.421 562.388,64.502 560.918,64.228C537.402,59.836 518.641,60.045 495.126,64.22C493.569,64.496 492.234,65.493 491.527,66.908C490.82,68.323 490.825,69.989 491.539,71.4C491.539,71.4 494.874,78.007 500.224,84.244C504.075,88.732 508.967,92.943 514.32,94.852C526.285,99.12 552.431,95.077 552.431,95.077ZM548.039,85.635C541.653,86.543 525.858,88.35 517.68,85.433C513.882,84.079 510.546,80.917 507.814,77.733C506.404,76.089 505.159,74.416 504.112,72.892C521.137,70.41 535.936,70.348 553.069,73.025C553.069,73.025 548.04,85.635 548.04,85.635L548.039,85.635Z"/>
    </g>
</svg>
